<svg width="18" height="18" viewBox="0 0 18 18" fill="none" xmlns="http://www.w3.org/2000/svg">
<path fill-rule="evenodd" clip-rule="evenodd" d="M12.6117 1.29175H5.38758C2.87008 1.29175 1.29175 3.07425 1.29175 5.59675V12.4034C1.29175 14.9259 2.86258 16.7084 5.38758 16.7084H12.6109C15.1367 16.7084 16.7084 14.9259 16.7084 12.4034V5.59675C16.7084 3.07425 15.1367 1.29175 12.6117 1.29175Z" stroke="#AFB0B6" stroke-linecap="round" stroke-linejoin="round"/>
<path fill-rule="evenodd" clip-rule="evenodd" d="M7.90759 9.00012C7.90759 9.85262 7.21676 10.5435 6.36426 10.5435C5.51176 10.5435 4.82092 9.85262 4.82092 9.00012C4.82092 8.14762 5.51176 7.45679 6.36426 7.45679H6.36676C7.21759 7.45762 7.90759 8.14845 7.90759 9.00012Z" stroke="#AFB0B6" stroke-linecap="round" stroke-linejoin="round"/>
<path d="M7.91003 9H13.175V10.5433" stroke="#AFB0B6" stroke-linecap="round" stroke-linejoin="round"/>
<path d="M10.8181 10.5436V9.00024" stroke="#AFB0B6" stroke-linecap="round" stroke-linejoin="round"/>
</svg>
